<svg width="17" height="16" viewBox="0 0 17 16" fill="none" xmlns="http://www.w3.org/2000/svg">
<path d="M11.0858 2.58579C11.8668 1.80474 13.1331 1.80474 13.9142 2.58579C14.6952 3.36683 14.6952 4.63316 13.9142 5.41421L10.9142 8.41421C10.1331 9.19526 8.86682 9.19526 8.08577 8.41421C7.69524 8.02369 7.06208 8.02369 6.67156 8.41421C6.28103 8.80474 6.28103 9.4379 6.67156 9.82843C8.23365 11.3905 10.7663 11.3905 12.3284 9.82843L15.3284 6.82843C16.8905 5.26633 16.8905 2.73367 15.3284 1.17157C13.7663 -0.390524 11.2337 -0.390524 9.67156 1.17157L8.17156 2.67157C7.78103 3.0621 7.78103 3.69526 8.17156 4.08579C8.56208 4.47631 9.19524 4.47631 9.58577 4.08579L11.0858 2.58579Z" fill="#323E51"/>
<path d="M6.08579 7.58579C6.86683 6.80474 8.13316 6.80474 8.91421 7.58579C9.30474 7.97631 9.9379 7.97631 10.3284 7.58579C10.719 7.19526 10.719 6.5621 10.3284 6.17157C8.76633 4.60948 6.23367 4.60948 4.67157 6.17157L1.67157 9.17157C0.109476 10.7337 0.109476 13.2663 1.67157 14.8284C3.23367 16.3905 5.76633 16.3905 7.32843 14.8284L8.82843 13.3284C9.21895 12.9379 9.21895 12.3047 8.82843 11.9142C8.4379 11.5237 7.80474 11.5237 7.41421 11.9142L5.91421 13.4142C5.13316 14.1953 3.86684 14.1953 3.08579 13.4142C2.30474 12.6332 2.30474 11.3668 3.08579 10.5858L6.08579 7.58579Z" fill="#323E51"/>
</svg>
