<svg width="19" height="18" viewBox="0 0 19 18" fill="none" xmlns="http://www.w3.org/2000/svg">
<path d="M1.5 3C1.5 1.89543 2.39543 1 3.5 1H5.5C6.60457 1 7.5 1.89543 7.5 3V5C7.5 6.10457 6.60457 7 5.5 7H3.5C2.39543 7 1.5 6.10457 1.5 5V3Z" stroke="#A3A9B5" stroke-width="2" stroke-linecap="round" stroke-linejoin="round"/>
<path d="M11.5 3C11.5 1.89543 12.3954 1 13.5 1H15.5C16.6046 1 17.5 1.89543 17.5 3V5C17.5 6.10457 16.6046 7 15.5 7H13.5C12.3954 7 11.5 6.10457 11.5 5V3Z" stroke="#A3A9B5" stroke-width="2" stroke-linecap="round" stroke-linejoin="round"/>
<path d="M1.5 13C1.5 11.8954 2.39543 11 3.5 11H5.5C6.60457 11 7.5 11.8954 7.5 13V15C7.5 16.1046 6.60457 17 5.5 17H3.5C2.39543 17 1.5 16.1046 1.5 15V13Z" stroke="#A3A9B5" stroke-width="2" stroke-linecap="round" stroke-linejoin="round"/>
<path d="M11.5 13C11.5 11.8954 12.3954 11 13.5 11H15.5C16.6046 11 17.5 11.8954 17.5 13V15C17.5 16.1046 16.6046 17 15.5 17H13.5C12.3954 17 11.5 16.1046 11.5 15V13Z" stroke="#A3A9B5" stroke-width="2" stroke-linecap="round" stroke-linejoin="round"/>
</svg>
